<svg xmlns="http://www.w3.org/2000/svg" xmlns:xlink="http://www.w3.org/1999/xlink" preserveAspectRatio="xMidYMid" width="268" height="411" viewBox="0 0 268 411">
  <defs>
    <style>
      .cls-1 {
        fill: #531fc0;
      }

      .cls-2 {
        fill: #fff;
      }

      .cls-3 {
        fill: #1cd4a3;
      }
    </style>
  </defs>
  <g>
    <rect y="24" width="168" height="2" class="cls-1"/>
    <rect x="40" y="48" width="98" height="2" class="cls-2"/>
    <rect x="39" y="72" width="78" height="2" class="cls-3"/>
    <rect width="78" height="2" class="cls-3"/>
    <rect y="96" width="158" height="2" class="cls-2"/>
    <rect x="70" y="120" width="175" height="2" class="cls-3"/>
    <rect x="70" y="144" width="168" height="2" class="cls-1"/>
    <rect x="40" y="168" width="88" height="2" class="cls-2"/>
    <rect x="70" y="192" width="128" height="2" class="cls-1"/>
    <rect y="216" width="228" height="2" class="cls-2"/>
    <rect x="40" y="240" width="145" height="2" class="cls-3"/>
    <rect x="70" y="265" width="78" height="2" class="cls-1"/>
    <rect x="70" y="289" width="118" height="2" class="cls-2"/>
    <rect x="40" y="313" width="175" height="2" class="cls-3"/>
    <rect x="70" y="337" width="18" height="2" class="cls-1"/>
    <rect x="70" y="361" width="78" height="2" class="cls-2"/>
    <rect x="100" y="385" width="135" height="2" class="cls-3"/>
    <rect x="100" y="409" width="168" height="2" class="cls-1"/>
  </g>
</svg>
